# xmcd
#
# Track frame offsets:
#	150
#	22117
#	35646
#	47856
#	61171
#	73806
#	89351
#	106215
#	118562
#	134448
#	146909
#	161600
#
# Disc length: 2296
#
# Revision: 2
# Processed by: cddbd v1.5.1PL0 Copyright (c) Steve Scherf et al.
# Submitted via: EasyCDDAExtractor 7.0.5.4
# Normalized: r1:DSETVAR1
#
DISCID=b108f60c
DTITLE=Various Artist - Country Hits
DYEAR=1900
DGENRE=Country
TTITLE0=The Judds - Born To Be Blue
TTITLE1=George Straight - Baby's Got Her Blue Jeans On
TTITLE2=Faith Hill - She's A Wild One
TTITLE3=Aaron Tippin - Kiss Thiss
TTITLE4=Lori Morgan - What Part Of No
TTITLE5=Tim McGraw - I Like It I Love It
TTITLE6=Brooks And Dunn - Rock My World
TTITLE7=Tammy Wynette - Stand By Your Man
TTITLE8=Kenny Rogers - The Gambler
TTITLE9=Johnny Cash - I Walk The Line
TTITLE10=Jo Dee Messina - I'm Alright
TTITLE11=Unbelievable
EXTD=
EXTT0=
EXTT1=
EXTT2=
EXTT3=
EXTT4=
EXTT5=
EXTT6=
EXTT7=
EXTT8=
EXTT9=
EXTT10=
EXTT11=
PLAYORDER=
